<svg xmlns="http://www.w3.org/2000/svg" xmlns:xlink="http://www.w3.org/1999/xlink" version="1.1" x="0px" y="0px" style="enable-background:new 0 0 1920 1080;" xml:space="preserve" viewBox="75.36 102.45 1142.66 537.13">
<style type="text/css">
	.st0{fill:#282A2E;}
	.st1{fill:#303030;stroke:#000000;stroke-width:13;stroke-miterlimit:10;}
	.st2{fill:#A6A6A6;stroke:#787878;stroke-width:13;stroke-miterlimit:10;}
	.st3{fill:#C9D7F2;}
</style>
<g id="Layer_1">
</g>
<g id="Layer_2">
	<rect x="180.02" y="198.81" class="st0" width="1038" height="416"/>
	<g>
		<path class="st1" d="M465.14,243.84c-9.57-7.22-19.85-13.36-30.63-18.5c6.34-0.85,14.09-3.36,21.57-6.53    c7.35-3.11,14.64-7,19.79-13.1c5.15-6.11,7.78-14.85,4.87-22.29c-23.29,4.67-44.81,17.65-59.83,36.05    c-3.3-1.28-6.64-2.47-10.01-3.58c11.04-14.38,16.78-28.58,16.38-42.82c-0.14-4.98-2.41-11.25-7.39-11.22    c-3.61,0.02-6.12,3.51-7.83,6.7c-7.26,13.51-11.65,28.55-12.91,43.84c-16.64-4.46-33.85-7.01-51.03-7.84    c-41.72-2.02-83.4,5.56-123.64,16.76c-15.94,4.44-32.13,9.65-45.04,20c-12.91,10.35-22.01,26.96-19.11,43.25    c1.21,6.79,8.18,17.29,17.68,23.56c9.5,6.27,20.85,9.02,32.04,11.09c77.42,14.38,157.48,1.52,233.34-19.56    c9.12-2.53,18.43-5.3,25.94-11.06c7.51-5.76,12.91-15.22,11.21-24.53C479,255.5,472.07,249.06,465.14,243.84z"/>
	</g>
	<path class="st2" d="M111.86,287.61l388,3.3l-74.08,306.2c-4.69,19.4-15.92,35.16-35.87,35.47l-169.95,0.49   c-20.98,0.32-39.24-14.3-43.51-34.85L111.86,287.61z"/>
	<path class="st2" d="M81.86,264.95l418-114.7c0,0-50.98-34.46-70.65-38.23c-81.38-15.61-258,30.61-320.27,86.02   C95.54,209.97,81.86,264.95,81.86,264.95z"/>
	<g>
		<path class="st3" d="M696.92,264.7c0,0.86-1.62,1.33-4.86,1.43c-3.62,0.1-6.03,1.29-7.22,3.57c-1.19,2.29-3.03,7.14-5.5,14.58    c-4.29,13.05-8.1,24.15-11.43,33.29c-5.72,15.62-10.91,30.72-15.58,45.3c-0.38,1.24-0.86,1.86-1.43,1.86    c-0.48,0-0.93-0.48-1.36-1.43s-1.69-4.29-3.79-10c-2.67-7.43-5.57-14.91-8.72-22.43c-2.48-5.91-4.91-12-7.29-18.29    c-6.67,16.1-13.29,32.92-19.86,50.44c-0.38,1.14-0.86,1.71-1.43,1.71c-0.48,0-1.05-0.81-1.71-2.43    c-2.95-7.05-13.91-36.25-32.87-87.6c-1.33-3.62-2.34-5.88-3-6.79c-0.67-0.9-2.34-1.4-5-1.5c-4.57-0.19-6.86-0.86-6.86-2    c0-0.86,0.76-1.29,2.29-1.29c0.67,0,1.24,0.05,1.71,0.14c5.05,0.29,10.48,0.43,16.29,0.43c1.14,0,3.12-0.07,5.93-0.21    c2.81-0.14,6.45-0.21,10.93-0.21h1.57c1.62,0,2.43,0.43,2.43,1.29c0,1.05-1.48,1.62-4.43,1.71c-5.91,0.19-8.86,0.95-8.86,2.29    c0,2.67,8.76,27.49,26.29,74.45c6.38-16.1,11.15-27.96,14.29-35.58l-14.15-36.58c-0.76-2-1.64-3.29-2.64-3.86    c-1-0.57-2.84-0.9-5.5-1c-2.67-0.09-4-0.52-4-1.29c0-1.05,1-1.57,3-1.57c1.52,0,3.38,0.1,5.57,0.29c2.19,0.19,6,0.29,11.43,0.29    h10.86l15.72,0.29c3.52,0,7.76-0.19,12.72-0.57c0.57-0.09,1.24-0.14,2-0.14c2.29,0,3.43,0.48,3.43,1.43    c0,0.86-0.81,1.29-2.43,1.29h-2.43c-4.29,0-7.53,0.57-9.72,1.71c-0.95,0.48-2.72,3.91-5.29,10.29c-1.14,2.67-3.05,7.19-5.72,13.57    c-0.57,1.43-1.43,3.57-2.57,6.43c0.67,1.91,2.76,7.19,6.29,15.86c4.57,11.05,8.33,20.53,11.29,28.44    c5.33-15.43,11.62-33.67,18.86-54.73c3.81-11.15,5.72-17.34,5.72-18.58c0-1.81-1.67-2.71-5-2.71c-4.67,0-7-0.52-7-1.57    c0-0.95,0.95-1.43,2.86-1.43c1.62,0,2.91,0.05,3.86,0.14c2.09,0.19,4,0.29,5.72,0.29l11.43-0.14c2.86,0,4.43,0.12,4.72,0.36    C696.77,264.16,696.92,264.42,696.92,264.7z M636.47,266.42h-1.71l-2.43,0.14c-3.43,0.19-5.14,0.81-5.14,1.86    c0,0.19,2.81,8.43,8.43,24.72c2.19-4.76,4.76-11.05,7.72-18.86c0.38-1.05,0.95-2.43,1.71-4.14l0.29-1.14    C645.33,267.27,642.38,266.42,636.47,266.42z"/>
		<path class="st3" d="M773.08,339.72c0,0.38-0.1,2.72-0.29,7c-0.19,4.29-0.29,8.38-0.29,12.29v4.72    c-9.34-0.48-27.82-0.71-55.44-0.71c-3.34,0-6.62,0.05-9.86,0.14c-3.24,0-5.43,0-6.57,0h-1.43c-1.81,0-2.71-0.43-2.71-1.29    c0-0.57,0.29-0.9,0.86-1c0.29,0,2.09-0.14,5.43-0.43c2.48-0.19,3.98-0.71,4.5-1.57c0.52-0.86,0.79-3.09,0.79-6.72v-80.31    c0-2.76-0.41-4.4-1.21-4.93c-0.81-0.52-3.41-0.79-7.79-0.79c-1.52,0-2.29-0.43-2.29-1.29c0-0.86,1.05-1.29,3.14-1.29l24.44,0.14    c0.86,0,6.24-0.05,16.15-0.14c9.91,0,16.58,0,20.01,0c2.86,0,5.48-0.19,7.86-0.57c0.19,4.1,0.62,9.77,1.29,17l0.57,6.14    c0.09,0.48,0.14,1.1,0.14,1.86c0,0.95-0.43,1.43-1.29,1.43c-1.05,0-1.81-1.19-2.29-3.57c-1.81-8.57-4.76-14-8.86-16.29    c-3.05-1.71-11.05-2.57-24.01-2.57h-11.72v41.87h3.43c10.67,0,17.17-0.81,19.51-2.43c2.33-1.62,3.93-6.33,4.79-14.15    c0.19-2,0.71-3,1.57-3c1.05,0,1.57,0.86,1.57,2.57s-0.1,4.24-0.29,7.57c-0.19,3.34-0.29,5.86-0.29,7.57    c0,10.19,0.19,17.2,0.57,21.01c0.09,0.95,0.14,1.76,0.14,2.43c0,1.24-0.52,1.86-1.57,1.86c-0.67,0-1.12-0.4-1.36-1.21    c-0.24-0.81-0.64-3.45-1.21-7.93c-0.76-5.62-3.1-9.1-7-10.43c-1.71-0.57-6.19-0.86-13.43-0.86h-6.43v48.01    c20.96,0,33.25-0.43,36.87-1.29c6.29-1.43,9.86-7.52,10.72-18.29c0.19-2.38,0.81-3.57,1.86-3.57    C772.6,336.72,773.08,337.72,773.08,339.72z"/>
		<path class="st3" d="M856.24,339.72c0,0.38-0.1,2.72-0.29,7c-0.19,4.29-0.29,8.38-0.29,12.29v4.72    c-9.34-0.48-27.82-0.71-55.44-0.71c-3.34,0-6.62,0.05-9.86,0.14c-3.24,0-5.43,0-6.57,0h-1.43c-1.81,0-2.71-0.43-2.71-1.29    c0-0.57,0.29-0.9,0.86-1c0.29,0,2.09-0.14,5.43-0.43c2.48-0.19,3.98-0.71,4.5-1.57c0.52-0.86,0.79-3.09,0.79-6.72v-80.31    c0-2.76-0.41-4.4-1.21-4.93c-0.81-0.52-3.41-0.79-7.79-0.79c-1.52,0-2.29-0.43-2.29-1.29c0-0.86,1.05-1.29,3.14-1.29l24.44,0.14    c0.86,0,6.24-0.05,16.15-0.14c9.91,0,16.58,0,20.01,0c2.86,0,5.48-0.19,7.86-0.57c0.19,4.1,0.62,9.77,1.29,17l0.57,6.14    c0.09,0.48,0.14,1.1,0.14,1.86c0,0.95-0.43,1.43-1.29,1.43c-1.05,0-1.81-1.19-2.29-3.57c-1.81-8.57-4.76-14-8.86-16.29    c-3.05-1.71-11.05-2.57-24.01-2.57h-11.72v41.87h3.43c10.67,0,17.17-0.81,19.51-2.43c2.33-1.62,3.93-6.33,4.79-14.15    c0.19-2,0.71-3,1.57-3c1.05,0,1.57,0.86,1.57,2.57s-0.1,4.24-0.29,7.57c-0.19,3.34-0.29,5.86-0.29,7.57    c0,10.19,0.19,17.2,0.57,21.01c0.09,0.95,0.14,1.76,0.14,2.43c0,1.24-0.52,1.86-1.57,1.86c-0.67,0-1.12-0.4-1.36-1.21    c-0.24-0.81-0.64-3.45-1.21-7.93c-0.76-5.62-3.1-9.1-7-10.43c-1.71-0.57-6.19-0.86-13.43-0.86h-6.43v48.01    c20.96,0,33.25-0.43,36.87-1.29c6.29-1.43,9.86-7.52,10.72-18.29c0.19-2.38,0.81-3.57,1.86-3.57    C855.76,336.72,856.24,337.72,856.24,339.72z"/>
		<path class="st3" d="M958.27,361.73c0,0.86-0.67,1.29-2,1.29h-1.14l-17.15-0.14l-16.72,0.14c-0.57,0.09-1.19,0.14-1.86,0.14    c-1.81,0-2.71-0.38-2.71-1.14c0-0.76,1.19-1.24,3.57-1.43c4.95-0.48,7.43-1.29,7.43-2.43c0-1.24-13-16.72-39.01-46.44v41.3    c0,3.34,0.52,5.41,1.57,6.22c1.05,0.81,3.86,1.21,8.43,1.21c1.05,0,1.57,0.48,1.57,1.43c0,0.86-0.67,1.29-2,1.29    c-0.95,0-1.81-0.05-2.57-0.14l-19.86-0.29c-1.24,0-2.69,0.07-4.36,0.21c-1.67,0.14-3.36,0.21-5.07,0.21h-1.29    c-1.43,0-2.14-0.43-2.14-1.29c0-0.95,1.76-1.48,5.29-1.57c3.24-0.09,5.14-0.81,5.72-2.14c0.29-0.48,0.43-3.48,0.43-9l-0.14-79.59    c-0.1-2-2.67-3-7.72-3c-2.29,0-3.43-0.52-3.43-1.57c0-0.86,0.81-1.29,2.43-1.29c0.48,0,1.09,0.05,1.86,0.14    c1.52,0.19,5.76,0.29,12.72,0.29c7.43,0,12.15-0.09,14.15-0.29c1.05-0.09,2.14-0.14,3.29-0.14c1.71,0,2.57,0.52,2.57,1.57    c0,0.57-0.26,0.93-0.79,1.07c-0.52,0.14-2.17,0.26-4.93,0.36c-2.76,0.1-4.41,0.48-4.93,1.14c-0.52,0.67-0.79,2.81-0.79,6.43v34.87    L900.82,297c18.38-18.38,27.58-27.96,27.58-28.72c0-1.24-2.24-1.81-6.72-1.71c-2.86,0.1-4.29-0.38-4.29-1.43    c0-0.67,0.67-1.05,2-1.14c1.33-0.09,5.95-0.14,13.86-0.14h7.86c3.33,0,5.24,0.05,5.72,0.14c0.95,0.19,1.43,0.67,1.43,1.43    c0,1.05-1.05,1.57-3.14,1.57c-4.38-0.09-7.19,0-8.43,0.29c-1.24,0.29-2.48,1.05-3.72,2.29c-6.19,6.48-15.62,16.2-28.29,29.15    l-3.72,3.72l-1.86,2c0.57,0.67,2.95,3.24,7.14,7.72c8,8.29,19.48,21.58,34.44,39.87c3.14,3.81,5.31,6.1,6.5,6.86    c1.19,0.76,3.5,1.24,6.93,1.43C956.89,360.49,958.27,360.97,958.27,361.73z"/>
		<path class="st3" d="M1033.57,351.58c0,2.48-0.14,6.57-0.43,12.29h-1.57c-0.57,0-1.95-0.1-4.14-0.29    c-2.19-0.19-4.67-0.29-7.43-0.29l-59.44-0.43c-1.62,0-2.43-0.43-2.43-1.29c0-0.67,1.29-1.09,3.86-1.29    c3.62-0.19,5.79-0.59,6.5-1.21c0.71-0.62,1.07-2.4,1.07-5.36v-80.31c0-3.52-0.36-5.57-1.07-6.14c-0.71-0.57-3.26-0.86-7.64-0.86    c-1.81,0-2.71-0.52-2.71-1.57c0-0.86,0.57-1.29,1.71-1.29h1.29c3.14,0.29,9.38,0.43,18.72,0.43c0.86,0,2.52-0.07,5-0.21    c2.48-0.14,4.52-0.21,6.14-0.21h1.57c1.71,0,2.57,0.48,2.57,1.43c0,0.57-0.26,0.93-0.79,1.07c-0.52,0.14-2.17,0.26-4.93,0.36    c-2.76,0.1-4.41,0.55-4.93,1.36c-0.52,0.81-0.79,3.31-0.79,7.5v84.31c2.57,0.1,6.14,0.14,10.72,0.14c11.15,0,19-0.57,23.58-1.71    c4.57-1.14,7.67-3.29,9.29-6.43c1.62-3.14,2.57-7.38,2.86-12.72c0.09-1.24,0.67-1.86,1.71-1.86c1.24,0,1.81,0.71,1.71,2.14    l-0.14,3.57c0,0.19,0,0.62,0,1.29c0.09,0.67,0.14,1.33,0.14,2V351.58z"/>
		<path class="st3" d="M1123.17,264.85c0,0.76-0.81,1.14-2.43,1.14c-5.24,0.1-8.48,1-9.72,2.71c-1.14,1.05-5.24,9.15-12.29,24.29    c-3.14,6.77-6.1,12.72-8.86,17.86c-1.91,3.53-3,5.93-3.29,7.22c-0.29,1.29-0.43,4.07-0.43,8.36v27.01c0,3.14,0.4,5,1.21,5.57    c0.81,0.57,3.64,1,8.5,1.29c2.57,0.19,3.86,0.67,3.86,1.43c0,0.76-0.67,1.14-2,1.14h-1.71l-20.01-0.43    c-5.62,0-10.24,0.1-13.86,0.29c-0.57,0.1-1.24,0.14-2,0.14c-1.34,0-2-0.43-2-1.29s1.09-1.33,3.29-1.43    c5.24-0.19,8.33-0.67,9.29-1.43c0.95-0.76,1.43-3.05,1.43-6.86v-30.15c-0.95-2.09-3.71-7.67-8.29-16.72l-14.29-28.29    c-1.43-2.76-3.14-5.86-5.14-9.29c-1.05-0.95-3.31-1.43-6.79-1.43c-3.48,0-5.22-0.52-5.22-1.57c0-0.76,0.76-1.14,2.29-1.14    c2,0,6,0.1,12,0.29c3.43,0.1,5.91,0.14,7.43,0.14l16.58-0.14c0.67-0.09,1.43-0.14,2.29-0.14c1.71,0,2.57,0.48,2.57,1.43    c0,0.86-1.62,1.29-4.86,1.29c-5.91,0-8.86,1.05-8.86,3.14c0,1.62,3,8.15,9,19.58l13,24.72c2.38-4.29,5.09-9.57,8.14-15.86l8.43-17    c3.14-6.1,4.71-10.1,4.71-12c0-1.24-0.81-1.95-2.43-2.14c-3.34-0.48-5.57-0.67-6.72-0.57c-2.1,0.1-3.14-0.38-3.14-1.43    c0-0.76,0.9-1.14,2.72-1.14l8.29,0.14l4.71-0.14C1118.31,263.13,1123.17,263.61,1123.17,264.85z"/>
		<path class="st3" d="M696.92,436.18c0,0.86-1.62,1.33-4.86,1.43c-3.62,0.1-6.03,1.29-7.22,3.57c-1.19,2.29-3.03,7.14-5.5,14.58    c-4.29,13.05-8.1,24.15-11.43,33.29c-5.72,15.62-10.91,30.72-15.58,45.3c-0.38,1.24-0.86,1.86-1.43,1.86    c-0.48,0-0.93-0.48-1.36-1.43s-1.69-4.29-3.79-10c-2.67-7.43-5.57-14.91-8.72-22.43c-2.48-5.91-4.91-12-7.29-18.29    c-6.67,16.1-13.29,32.92-19.86,50.44c-0.38,1.14-0.86,1.71-1.43,1.71c-0.48,0-1.05-0.81-1.71-2.43    c-2.95-7.05-13.91-36.25-32.87-87.6c-1.33-3.62-2.34-5.88-3-6.79c-0.67-0.9-2.34-1.4-5-1.5c-4.57-0.19-6.86-0.86-6.86-2    c0-0.86,0.76-1.29,2.29-1.29c0.67,0,1.24,0.05,1.71,0.14c5.05,0.29,10.48,0.43,16.29,0.43c1.14,0,3.12-0.07,5.93-0.21    c2.81-0.14,6.45-0.21,10.93-0.21h1.57c1.62,0,2.43,0.43,2.43,1.29c0,1.05-1.48,1.62-4.43,1.71c-5.91,0.19-8.86,0.95-8.86,2.29    c0,2.67,8.76,27.49,26.29,74.45c6.38-16.1,11.15-27.96,14.29-35.58l-14.15-36.58c-0.76-2-1.64-3.29-2.64-3.86    c-1-0.57-2.84-0.9-5.5-1c-2.67-0.09-4-0.52-4-1.29c0-1.05,1-1.57,3-1.57c1.52,0,3.38,0.1,5.57,0.29c2.19,0.19,6,0.29,11.43,0.29    h10.86l15.72,0.29c3.52,0,7.76-0.19,12.72-0.57c0.57-0.09,1.24-0.14,2-0.14c2.29,0,3.43,0.48,3.43,1.43    c0,0.86-0.81,1.29-2.43,1.29h-2.43c-4.29,0-7.53,0.57-9.72,1.71c-0.95,0.48-2.72,3.91-5.29,10.29c-1.14,2.67-3.05,7.19-5.72,13.57    c-0.57,1.43-1.43,3.57-2.57,6.43c0.67,1.91,2.76,7.19,6.29,15.86c4.57,11.05,8.33,20.53,11.29,28.44    c5.33-15.43,11.62-33.67,18.86-54.73c3.81-11.15,5.72-17.34,5.72-18.58c0-1.81-1.67-2.71-5-2.71c-4.67,0-7-0.52-7-1.57    c0-0.95,0.95-1.43,2.86-1.43c1.62,0,2.91,0.05,3.86,0.14c2.09,0.19,4,0.29,5.72,0.29l11.43-0.14c2.86,0,4.43,0.12,4.72,0.36    C696.77,435.63,696.92,435.89,696.92,436.18z M636.47,437.89h-1.71l-2.43,0.14c-3.43,0.19-5.14,0.81-5.14,1.86    c0,0.19,2.81,8.43,8.43,24.72c2.19-4.76,4.76-11.05,7.72-18.86c0.38-1.05,0.95-2.43,1.71-4.14l0.29-1.14    C645.33,438.75,642.38,437.89,636.47,437.89z"/>
		<path class="st3" d="M785.22,533.35c0,0.86-0.71,1.29-2.14,1.29c-0.95,0-1.81-0.05-2.57-0.14l-18.15-0.29l-18.15,0.29    c-0.67,0.09-1.38,0.14-2.14,0.14c-1.91,0-2.86-0.48-2.86-1.43c0-1.05,1.29-1.57,3.86-1.57c8.38-0.09,12.57-0.95,12.57-2.57    c0-0.09-0.1-0.48-0.29-1.14l-1.14-3.86l-0.71-2c-0.86-2.95-2.95-9.48-6.29-19.58h-30.58c-5.72,15.24-8.57,24.01-8.57,26.29    c0,1.34,0.57,2.14,1.71,2.43c0.29,0.1,2.67,0.29,7.14,0.57c2.76,0.1,4.14,0.57,4.14,1.43c0,0.95-1.24,1.43-3.72,1.43    c-4.38,0-9.48-0.19-15.29-0.57c-1.43-0.09-2.91-0.14-4.43-0.14c-1.52,0-3,0.1-4.43,0.29c-0.76,0.1-1.38,0.14-1.86,0.14    c-1.33,0-2-0.43-2-1.29s1.5-1.33,4.5-1.43c3-0.09,5.17-0.55,6.5-1.36c1.33-0.81,2.38-2.36,3.14-4.64    c12.29-35.06,22.29-63.21,30.01-84.45c0.19-1.14,0.57-2.43,1.14-3.86l0.71-2.57c0.29-1.05,0.67-1.57,1.14-1.57    c0.29,0,0.52,0.29,0.71,0.86c1.24,3.72,4.05,11.48,8.43,23.29c3.43,9.24,11.95,32.44,25.58,69.59c0.76,2.1,1.74,3.43,2.93,4    c1.19,0.57,3.64,0.91,7.36,1C783.98,532.02,785.22,532.49,785.22,533.35z M746.36,499.2c-1.53-4.29-4.05-11.38-7.57-21.29    l-6.86-19.58c-4,10.48-8.81,24.1-14.43,40.87H746.36z"/>
		<path class="st3" d="M845.81,506.48c0,8.19-3.12,15.17-9.36,20.93c-6.24,5.77-13.74,8.65-22.51,8.65    c-5.14,0-11.29-1.57-18.43-4.72c-1.91-0.86-3.34-1.29-4.29-1.29c-1.14,0-1.86,1.38-2.14,4.14c-0.1,1.43-0.71,2.14-1.86,2.14    c-0.95,0-1.43-0.57-1.43-1.71c0-0.76,0.05-1.33,0.14-1.71c0.76-5.81,1.14-11.19,1.14-16.15c0-0.95-0.1-3.62-0.29-8    c-0.1-0.57-0.14-1.33-0.14-2.29c0-1.43,0.57-2.14,1.71-2.14c0.95,0,1.62,1.14,2,3.43c2.48,16.96,10.53,25.44,24.15,25.44    c5.81,0,10.31-1.64,13.5-4.93c3.19-3.29,4.79-7.93,4.79-13.93c0-5.33-1.55-9.88-4.64-13.65c-3.1-3.76-8.41-7.5-15.93-11.22    c-9.05-4.48-15.34-8.81-18.86-13c-3.53-4.19-5.29-9.38-5.29-15.58c0-7.91,2.55-14.43,7.65-19.58c5.1-5.14,11.55-7.72,19.36-7.72    c3.24,0,7.72,1.1,13.43,3.29c2,0.76,3.48,1.14,4.43,1.14c1.05,0,1.74-0.19,2.07-0.57c0.33-0.38,0.64-1.38,0.93-3    c0.19-0.95,0.71-1.43,1.57-1.43c0.95,0,1.43,0.57,1.43,1.71c0,0.76-0.05,1.34-0.14,1.71c-0.29,2.29-0.43,5.05-0.43,8.29    c0,4.57,0.24,8.19,0.71,10.86l0.14,2.29c0.09,1.05-0.33,1.57-1.29,1.57c-1.05,0-1.76-1.09-2.14-3.29    c-1.05-5.62-3.53-10.31-7.43-14.08c-3.91-3.76-8.29-5.64-13.15-5.64c-4.76,0-8.55,1.52-11.36,4.57    c-2.81,3.05-4.22,7.19-4.22,12.43c0,6.1,2.05,11,6.14,14.72c2.29,2.1,7.24,5.05,14.86,8.86c8.95,4.48,15.38,9.03,19.29,13.65    C843.86,495.31,845.81,500.58,845.81,506.48z"/>
		<path class="st3" d="M931.55,460.47c0,1.24-0.57,1.86-1.71,1.86c-1.14,0-1.95-1.24-2.43-3.72c-0.19-1.71-0.38-3.43-0.57-5.14    c-0.67-3.43-1.76-6.33-3.29-8.72c-2-3.14-5.29-5.14-9.86-6c-2.95-0.57-5.34-0.81-7.15-0.71c-4.48,0.19-7.19,0.33-8.15,0.43v86.17    c0,3.43,0.9,5.57,2.72,6.43c0.95,0.48,3.62,0.76,8,0.86c1.14,0.1,1.71,0.53,1.71,1.29c0,0.86-0.76,1.29-2.29,1.29    c-0.76,0-1.43-0.05-2-0.14c-5.72-0.19-9.77-0.29-12.15-0.29c-3.14,0-6.1,0.05-8.86,0.14c-2.76,0.1-6.29,0.14-10.57,0.14    c-2.19,0-3.29-0.38-3.29-1.14c0-0.86,2.05-1.33,6.14-1.43c2.95,0,4.86-0.62,5.72-1.86c0.48-0.76,0.71-2.71,0.71-5.86v-85.6    c-9.43,0.1-15.29,0.57-17.58,1.43c-6,2.19-9.53,8.05-10.57,17.58c-0.29,2.86-0.95,4.29-2,4.29c-1.14,0-1.71-1-1.71-3    c0-1.05,0.05-2.09,0.14-3.14l0.29-3.29c0.29-4.38,0.71-10.15,1.29-17.29h6.43l29.15,0.43c3.43,0.1,8.76,0.05,16-0.14l23.72-0.43    c0.19,5.34,0.81,13.24,1.86,23.72c0,0.29,0.05,0.64,0.14,1.07C931.5,460.11,931.55,460.38,931.55,460.47z"/>
		<path class="st3" d="M1014,511.2c0,0.38-0.1,2.71-0.29,7c-0.19,4.29-0.29,8.38-0.29,12.29v4.72c-9.34-0.48-27.82-0.71-55.44-0.71    c-3.34,0-6.62,0.05-9.86,0.14c-3.24,0-5.43,0-6.57,0h-1.43c-1.81,0-2.71-0.43-2.71-1.29c0-0.57,0.29-0.9,0.86-1    c0.29,0,2.09-0.14,5.43-0.43c2.48-0.19,3.98-0.71,4.5-1.57c0.52-0.86,0.79-3.09,0.79-6.72v-80.31c0-2.76-0.41-4.4-1.21-4.93    c-0.81-0.52-3.41-0.79-7.79-0.79c-1.52,0-2.29-0.43-2.29-1.29c0-0.86,1.05-1.29,3.14-1.29l24.43,0.14c0.86,0,6.24-0.05,16.15-0.14    c9.91,0,16.58,0,20.01,0c2.86,0,5.48-0.19,7.86-0.57c0.19,4.1,0.62,9.77,1.29,17l0.57,6.14c0.09,0.48,0.14,1.1,0.14,1.86    c0,0.95-0.43,1.43-1.29,1.43c-1.05,0-1.81-1.19-2.29-3.57c-1.81-8.57-4.77-14-8.86-16.29c-3.05-1.71-11.05-2.57-24.01-2.57h-11.72    v41.87h3.43c10.67,0,17.17-0.81,19.5-2.43c2.33-1.62,3.93-6.33,4.79-14.15c0.19-2,0.71-3,1.57-3c1.05,0,1.57,0.86,1.57,2.57    s-0.1,4.24-0.29,7.57c-0.19,3.34-0.29,5.86-0.29,7.57c0,10.2,0.19,17.2,0.57,21.01c0.09,0.95,0.14,1.76,0.14,2.43    c0,1.24-0.52,1.86-1.57,1.86c-0.67,0-1.12-0.4-1.36-1.21c-0.24-0.81-0.64-3.45-1.21-7.93c-0.76-5.62-3.1-9.1-7-10.43    c-1.71-0.57-6.19-0.86-13.43-0.86h-6.43v48.01c20.96,0,33.25-0.43,36.87-1.29c6.29-1.43,9.86-7.52,10.72-18.29    c0.19-2.38,0.81-3.57,1.86-3.57C1013.52,508.2,1014,509.2,1014,511.2z"/>
	</g>
</g>
</svg>